<svg xmlns="http://www.w3.org/2000/svg" width="375" viewBox="0 0 375 75" height="75" version="1.0"><defs><clipPath id="a"><path d="M 22.128906 7.5 L 76.128906 7.5 L 76.128906 60.75 L 22.128906 60.75 Z M 22.128906 7.5"/></clipPath></defs><g clip-path="url(#a)"><path fill="#00530E" d="M 69.453125 42.96875 L 69.453125 27.4375 L 76.003906 27.4375 L 54.121094 7.507812 L 54.121094 43.558594 C 55.511719 43.671875 56.847656 43.816406 58.097656 43.949219 C 61.527344 44.328125 65.984375 44.367188 69.460938 42.96875 Z M 58.691406 54.558594 C 53.96875 58.195312 46.566406 58.128906 40.371094 55.832031 C 31.945312 52.703125 26.945312 47.003906 22.253906 37.890625 C 23.191406 46.371094 28.347656 54.199219 36.621094 58.1875 C 49.410156 64.355469 64.789062 59.019531 70.972656 46.269531 C 71.523438 45.140625 72.003906 43.941406 72.414062 42.609375 C 68.566406 45.457031 62.527344 45.558594 57.96875 45.058594 C 50.757812 44.269531 39.644531 43.058594 34.96875 50.089844 C 37.363281 51.855469 37.789062 52.449219 40.882812 53.851562 C 45.246094 55.828125 54.277344 56.9375 58.691406 54.558594 Z M 58.691406 54.558594" fill-rule="evenodd"/></g><path fill="#271D09" d="M 51.960938 43.40625 L 51.960938 14.226562 L 43.492188 21.941406 L 43.492188 18.078125 L 37.820312 18.078125 L 37.820312 27.109375 L 30.070312 34.167969 L 36.621094 34.167969 L 36.621094 46.6875 C 40.675781 43.542969 46.53125 43.121094 51.960938 43.40625 Z M 50.320312 38.609375 L 45.808594 38.609375 L 45.808594 34.109375 L 50.320312 34.109375 Z M 50.320312 32.878906 L 45.808594 32.878906 L 45.808594 28.378906 L 50.320312 28.378906 Z M 50.320312 32.878906" fill-rule="evenodd"/><g fill="#00530E"><g><g><path d="M 3.351562 0.0351562 L 8.023438 0.0351562 L 8.023438 -11.117188 L 11.152344 -11.117188 L 17.558594 0.0351562 L 22.914062 0.0351562 L 15.683594 -11.578125 C 18.625 -12.589844 20.761719 -15.074219 20.761719 -18.351562 C 20.761719 -23.226562 16.621094 -26.007812 11.761719 -26.007812 L 3.351562 -26.007812 Z M 8.0625 -14.925781 L 8.0625 -21.828125 L 11.796875 -21.828125 C 14.46875 -21.828125 16.140625 -20.429688 16.140625 -18.277344 C 16.140625 -16.324219 14.667969 -15.039062 12.183594 -14.925781 Z M 8.0625 -14.925781" transform="translate(139.522 40.832)"/></g></g></g><g fill="#00530E"><g><g><path d="M 12.699219 0.367188 C 19.675781 0.367188 22.65625 -3.773438 22.65625 -10.324219 L 22.65625 -26.007812 L 17.984375 -26.007812 L 17.984375 -10.675781 C 17.984375 -6.480469 16.898438 -4.140625 12.699219 -4.140625 C 8.523438 -4.140625 7.417969 -6.480469 7.417969 -10.675781 L 7.417969 -26.007812 L 2.761719 -26.007812 L 2.761719 -10.140625 C 2.761719 -3.773438 5.722656 0.367188 12.699219 0.367188 Z M 12.699219 0.367188" transform="translate(162.852 40.832)"/></g></g></g><g fill="#00530E"><g><g><path d="M 3.351562 0.0351562 L 8.023438 0.0351562 L 8.023438 -11.117188 L 11.152344 -11.117188 L 17.558594 0.0351562 L 22.914062 0.0351562 L 15.683594 -11.578125 C 18.625 -12.589844 20.761719 -15.074219 20.761719 -18.351562 C 20.761719 -23.226562 16.621094 -26.007812 11.761719 -26.007812 L 3.351562 -26.007812 Z M 8.0625 -14.925781 L 8.0625 -21.828125 L 11.796875 -21.828125 C 14.46875 -21.828125 16.140625 -20.429688 16.140625 -18.277344 C 16.140625 -16.324219 14.667969 -15.039062 12.183594 -14.925781 Z M 8.0625 -14.925781" transform="translate(188.243 40.832)"/></g></g></g><g fill="#00530E"><g><g><path d="M 0.222656 0 L 5.320312 0 L 7.34375 -5.652344 L 17.449219 -5.652344 L 19.453125 0 L 24.5 0 L 14.136719 -26.007812 L 10.636719 -26.007812 Z M 8.925781 -9.644531 L 12.40625 -19.140625 L 15.867188 -9.644531 Z M 8.925781 -9.644531" transform="translate(211.573 40.832)"/></g></g></g><g fill="#00530E"><g><g><path d="M 3.351562 0 L 19.140625 0 L 19.140625 -4.417969 L 8.023438 -4.417969 L 8.023438 -26.007812 L 3.351562 -26.007812 Z M 3.351562 0" transform="translate(236.283 40.832)"/></g></g></g><g fill="#00530E"><g><g><path d="M 10.785156 0.292969 C 15.753906 0.292969 19.824219 -2.667969 19.824219 -7.582031 C 19.824219 -16.214844 7.234375 -14.558594 7.234375 -19.453125 C 7.234375 -21.113281 8.667969 -22.234375 10.511719 -22.234375 C 12.257812 -22.234375 13.804688 -21.222656 14.707031 -19.453125 L 18.589844 -21.828125 C 16.804688 -24.996094 13.878906 -26.394531 10.675781 -26.394531 C 6.292969 -26.394531 2.558594 -23.816406 2.558594 -19.214844 C 2.558594 -10.75 15.148438 -12.554688 15.148438 -7.160156 C 15.148438 -5.320312 13.640625 -3.847656 10.859375 -3.847656 C 8.097656 -3.847656 5.796875 -5.28125 5.464844 -8.523438 L 0.828125 -7.34375 C 1.65625 -2.226562 6.183594 0.292969 10.785156 0.292969 Z M 10.785156 0.292969" transform="translate(255.841 40.832)"/></g></g></g><g fill="#271D09"><g><g><path d="M 3.113281 0 L 4.136719 0 L 7.167969 -7.609375 L 5.671875 -7.609375 L 3.628906 -2.21875 L 1.578125 -7.609375 L 0.0664062 -7.609375 Z M 3.113281 0" transform="translate(102.172 57.33)"/></g></g></g><g fill="#271D09"><g><g><path d="M 0.980469 0 L 2.347656 0 L 2.347656 -7.609375 L 0.980469 -7.609375 Z M 0.980469 0" transform="translate(111.63 57.33)"/></g></g></g><g fill="#271D09"><g><g><path d="M 3.113281 0 L 4.136719 0 L 7.167969 -7.609375 L 5.671875 -7.609375 L 3.628906 -2.21875 L 1.578125 -7.609375 L 0.0664062 -7.609375 Z M 3.113281 0" transform="translate(117.185 57.33)"/></g></g></g><g fill="#271D09"><g><g><path d="M 0.980469 0 L 6.042969 0 L 6.042969 -1.292969 L 2.347656 -1.292969 L 2.347656 -3.175781 L 5.789062 -3.175781 L 5.789062 -4.433594 L 2.347656 -4.433594 L 2.347656 -6.355469 L 6.042969 -6.355469 L 6.042969 -7.609375 L 0.980469 -7.609375 Z M 0.980469 0" transform="translate(126.643 57.33)"/></g></g></g><g fill="#271D09"><g><g><path d="M 0.980469 0 L 6.042969 0 L 6.042969 -1.292969 L 2.347656 -1.292969 L 2.347656 -3.175781 L 5.789062 -3.175781 L 5.789062 -4.433594 L 2.347656 -4.433594 L 2.347656 -6.355469 L 6.042969 -6.355469 L 6.042969 -7.609375 L 0.980469 -7.609375 Z M 0.980469 0" transform="translate(140.45 57.33)"/></g></g></g><g fill="#271D09"><g><g><path d="M 0.132812 0 L 1.765625 0 L 3.609375 -2.890625 L 5.472656 0 L 7.105469 0 L 4.554688 -3.808594 L 7.09375 -7.609375 L 5.460938 -7.609375 L 3.621094 -4.675781 L 1.777344 -7.609375 L 0.144531 -7.609375 L 2.683594 -3.808594 Z M 0.132812 0" transform="translate(149.381 57.33)"/></g></g></g><g fill="#271D09"><g><g><path d="M 0.980469 0 L 2.335938 0 L 2.335938 -3.15625 L 3.367188 -3.15625 C 4.917969 -3.15625 6.054688 -3.9375 6.054688 -5.359375 C 6.054688 -6.796875 4.917969 -7.609375 3.367188 -7.609375 L 0.980469 -7.609375 Z M 2.335938 -4.433594 L 2.335938 -6.332031 L 3.367188 -6.332031 C 4.292969 -6.332031 4.695312 -5.976562 4.695312 -5.359375 C 4.695312 -4.753906 4.304688 -4.433594 3.367188 -4.433594 Z M 2.335938 -4.433594" transform="translate(158.84 57.33)"/></g></g></g><g fill="#271D09"><g><g><path d="M 0.980469 0 L 6.042969 0 L 6.042969 -1.292969 L 2.347656 -1.292969 L 2.347656 -3.175781 L 5.789062 -3.175781 L 5.789062 -4.433594 L 2.347656 -4.433594 L 2.347656 -6.355469 L 6.042969 -6.355469 L 6.042969 -7.609375 L 0.980469 -7.609375 Z M 0.980469 0" transform="translate(167.35 57.33)"/></g></g></g><g fill="#271D09"><g><g><path d="M 0.980469 0.0117188 L 2.347656 0.0117188 L 2.347656 -3.253906 L 3.265625 -3.253906 L 5.136719 0.0117188 L 6.707031 0.0117188 L 4.589844 -3.386719 C 5.449219 -3.683594 6.074219 -4.410156 6.074219 -5.371094 C 6.074219 -6.796875 4.863281 -7.609375 3.441406 -7.609375 L 0.980469 -7.609375 Z M 2.359375 -4.367188 L 2.359375 -6.386719 L 3.453125 -6.386719 C 4.234375 -6.386719 4.722656 -5.976562 4.722656 -5.347656 C 4.722656 -4.777344 4.292969 -4.398438 3.566406 -4.367188 Z M 2.359375 -4.367188" transform="translate(176.28 57.33)"/></g></g></g><g fill="#271D09"><g><g><path d="M 0.980469 0 L 2.347656 0 L 2.347656 -7.609375 L 0.980469 -7.609375 Z M 0.980469 0" transform="translate(185.335 57.33)"/></g></g></g><g fill="#271D09"><g><g><path d="M 0.980469 0 L 6.042969 0 L 6.042969 -1.292969 L 2.347656 -1.292969 L 2.347656 -3.175781 L 5.789062 -3.175781 L 5.789062 -4.433594 L 2.347656 -4.433594 L 2.347656 -6.355469 L 6.042969 -6.355469 L 6.042969 -7.609375 L 0.980469 -7.609375 Z M 0.980469 0" transform="translate(190.89 57.33)"/></g></g></g><g fill="#271D09"><g><g><path d="M 0.980469 0 L 2.292969 0 L 2.292969 -5.335938 L 5.484375 0 L 6.851562 0 L 6.851562 -7.609375 L 5.535156 -7.609375 L 5.535156 -2.285156 L 2.335938 -7.609375 L 0.980469 -7.609375 Z M 0.980469 0" transform="translate(199.82 57.33)"/></g></g></g><g fill="#271D09"><g><g><path d="M 4.125 0.109375 C 5.640625 0.109375 6.851562 -0.664062 7.453125 -2.085938 L 6.1875 -2.601562 C 5.777344 -1.578125 5.105469 -1.191406 4.125 -1.191406 C 2.492188 -1.191406 1.796875 -2.347656 1.796875 -3.863281 C 1.796875 -5.273438 2.492188 -6.429688 4.105469 -6.429688 C 5.09375 -6.429688 5.882812 -6.042969 6.167969 -5.042969 L 7.441406 -5.546875 C 6.828125 -6.96875 5.621094 -7.734375 4.113281 -7.734375 C 1.609375 -7.734375 0.441406 -5.890625 0.441406 -3.808594 C 0.441406 -1.71875 1.621094 0.109375 4.125 0.109375 Z M 4.125 0.109375" transform="translate(209.876 57.33)"/></g></g></g><g fill="#271D09"><g><g><path d="M 0.980469 0 L 2.347656 0 L 2.347656 -7.609375 L 0.980469 -7.609375 Z M 0.980469 0" transform="translate(219.813 57.33)"/></g></g></g><g fill="#271D09"><g><g><path d="M 0.0664062 0 L 1.554688 0 L 2.148438 -1.652344 L 5.105469 -1.652344 L 5.691406 0 L 7.167969 0 L 4.136719 -7.609375 L 3.113281 -7.609375 Z M 2.613281 -2.820312 L 3.628906 -5.601562 L 4.640625 -2.820312 Z M 2.613281 -2.820312" transform="translate(225.369 57.33)"/></g></g></g><g fill="#271D09"><g><g><path d="M 3.15625 0.0859375 C 4.609375 0.0859375 5.800781 -0.78125 5.800781 -2.21875 C 5.800781 -4.746094 2.117188 -4.261719 2.117188 -5.691406 C 2.117188 -6.175781 2.535156 -6.507812 3.074219 -6.507812 C 3.585938 -6.507812 4.039062 -6.210938 4.304688 -5.691406 L 5.441406 -6.386719 C 4.917969 -7.3125 4.0625 -7.722656 3.125 -7.722656 C 1.84375 -7.722656 0.75 -6.96875 0.75 -5.621094 C 0.75 -3.144531 4.433594 -3.671875 4.433594 -2.09375 C 4.433594 -1.554688 3.992188 -1.125 3.175781 -1.125 C 2.371094 -1.125 1.695312 -1.546875 1.597656 -2.492188 L 0.242188 -2.148438 C 0.484375 -0.652344 1.808594 0.0859375 3.15625 0.0859375 Z M 3.15625 0.0859375" transform="translate(234.827 57.33)"/></g></g></g><g fill="#271D09"><g><g><path d="M 3.054688 -8.273438 L 4.011719 -8.273438 L 5.664062 -9.828125 L 4.265625 -9.828125 Z M 3.714844 0.109375 C 5.757812 0.109375 6.628906 -1.105469 6.628906 -3.019531 L 6.628906 -7.609375 L 5.261719 -7.609375 L 5.261719 -3.125 C 5.261719 -1.894531 4.945312 -1.210938 3.714844 -1.210938 C 2.492188 -1.210938 2.171875 -1.894531 2.171875 -3.125 L 2.171875 -7.609375 L 0.808594 -7.609375 L 0.808594 -2.96875 C 0.808594 -1.105469 1.675781 0.109375 3.714844 0.109375 Z M 3.714844 0.109375" transform="translate(248.053 57.33)"/></g></g></g><g fill="#271D09"><g><g><path d="M 0.980469 0 L 2.292969 0 L 2.292969 -5.335938 L 5.484375 0 L 6.851562 0 L 6.851562 -7.609375 L 5.535156 -7.609375 L 5.535156 -2.285156 L 2.335938 -7.609375 L 0.980469 -7.609375 Z M 0.980469 0" transform="translate(257.71 57.33)"/></g></g></g><g fill="#271D09"><g><g><path d="M 0.980469 0 L 2.347656 0 L 2.347656 -7.609375 L 0.980469 -7.609375 Z M 0.980469 0" transform="translate(267.766 57.33)"/></g></g></g><g fill="#271D09"><g><g><path d="M 4.125 0.109375 C 5.640625 0.109375 6.851562 -0.664062 7.453125 -2.085938 L 6.1875 -2.601562 C 5.777344 -1.578125 5.105469 -1.191406 4.125 -1.191406 C 2.492188 -1.191406 1.796875 -2.347656 1.796875 -3.863281 C 1.796875 -5.273438 2.492188 -6.429688 4.105469 -6.429688 C 5.09375 -6.429688 5.882812 -6.042969 6.167969 -5.042969 L 7.441406 -5.546875 C 6.828125 -6.96875 5.621094 -7.734375 4.113281 -7.734375 C 1.609375 -7.734375 0.441406 -5.890625 0.441406 -3.808594 C 0.441406 -1.71875 1.621094 0.109375 4.125 0.109375 Z M 4.125 0.109375" transform="translate(273.321 57.33)"/></g></g></g><g fill="#271D09"><g><g><path d="M 0.0664062 0 L 1.554688 0 L 2.148438 -1.652344 L 5.105469 -1.652344 L 5.691406 0 L 7.167969 0 L 4.136719 -7.609375 L 3.113281 -7.609375 Z M 2.613281 -2.820312 L 3.628906 -5.601562 L 4.640625 -2.820312 Z M 2.613281 -2.820312" transform="translate(283.258 57.33)"/></g></g></g><g fill="#271D09"><g><g><path d="M 3.15625 0.0859375 C 4.609375 0.0859375 5.800781 -0.78125 5.800781 -2.21875 C 5.800781 -4.746094 2.117188 -4.261719 2.117188 -5.691406 C 2.117188 -6.175781 2.535156 -6.507812 3.074219 -6.507812 C 3.585938 -6.507812 4.039062 -6.210938 4.304688 -5.691406 L 5.441406 -6.386719 C 4.917969 -7.3125 4.0625 -7.722656 3.125 -7.722656 C 1.84375 -7.722656 0.75 -6.96875 0.75 -5.621094 C 0.75 -3.144531 4.433594 -3.671875 4.433594 -2.09375 C 4.433594 -1.554688 3.992188 -1.125 3.175781 -1.125 C 2.371094 -1.125 1.695312 -1.546875 1.597656 -2.492188 L 0.242188 -2.148438 C 0.484375 -0.652344 1.808594 0.0859375 3.15625 0.0859375 Z M 3.15625 0.0859375" transform="translate(292.716 57.33)"/></g></g></g></svg>